<?xml version="1.0" encoding="utf-8"?>
<svg fill="#000000" width="800px" height="800px" viewBox="0 0 24 24" version="1.2" baseProfile="tiny" xmlns="http://www.w3.org/2000/svg">
  <path d="M 12.115 11.639 C 13.446 11.107 13.047 9.242 12.115 8.443 C 10.65 7.244 8.519 7.91 7.586 9.508 C 5.588 12.705 8.785 16.168 12.115 16.035 C 15.711 15.768 17.842 12.172 17.043 8.842 C 16.11 4.847 11.848 2.849 8.119 4.048 C 4.656 5.113 2.525 8.709 2.791 12.305 C 3.191 16.301 6.254 19.498 10.117 20.163 C 13.846 20.829 17.709 19.098 19.706 15.901 C 20.639 14.436 21.305 12.705 21.305 10.84 C 21.305 10.174 21.971 9.508 22.77 9.642 C 23.835 9.642 24.102 10.707 23.968 11.506 C 23.436 17.766 17.975 22.96 11.582 22.96 C 3.724 22.96 -2.403 14.703 0.927 7.244 C 4.257 0.052 14.645 -1.413 18.641 5.646 C 20.639 8.976 20.239 13.371 17.442 16.168 C 14.778 18.832 10.383 19.364 7.187 17.1 C 4.257 14.969 3.324 10.574 5.722 7.511 C 7.986 4.447 13.047 4.314 15.045 7.777 C 16.51 10.308 15.045 14.703 11.715 14.303 C 9.584 14.303 7.719 12.039 8.918 10.041 C 9.717 8.842 11.449 9.242 11.981 10.174 C 12.248 11.24 12.115 11.639 12.115 11.639 L 12.115 11.639 Z"/>
</svg>